<svg version="1.1" xmlns="http://www.w3.org/2000/svg" viewBox="0 0 3493.375743450102 1252.330295138888" width="10480.127230350306" height="3756.9908854166642">
  <!-- svg-source:excalidraw -->
  
  <defs>
    <style class="style-fonts">
      @font-face {
        font-family: "Virgil";
        src: url("https://excalidraw.com/Virgil.woff2");
      }
      @font-face {
        font-family: "Cascadia";
        src: url("https://excalidraw.com/Cascadia.woff2");
      }
      @font-face {
        font-family: "Assistant";
        src: url("https://excalidraw.com/Assistant-Regular.woff2");
      }
    </style>
    
  </defs>
  <rect x="0" y="0" width="3493.375743450102" height="1252.330295138888" fill="#ffffff"></rect><g stroke-linecap="round" transform="translate(1693.7305115398474 278.02690972222155) rotate(0 320.3819444444441 287.7994791666666)"><path d="M32 0 C221.75 -1.1, 411.19 -0.97, 608.76 0 M32 0 C254.15 -1.05, 477.22 -1.32, 608.76 0 M608.76 0 C629.04 -0.05, 639.2 10.64, 640.76 32 M608.76 0 C632.06 -2.19, 640.96 11.64, 640.76 32 M640.76 32 C639.42 145.38, 638.3 258.47, 640.76 543.6 M640.76 32 C639.3 209.53, 639.21 386.6, 640.76 543.6 M640.76 543.6 C640.61 565.5, 630.23 575.91, 608.76 575.6 M640.76 543.6 C641.1 562.93, 630.53 576.16, 608.76 575.6 M608.76 575.6 C415.24 576.1, 220.75 576.77, 32 575.6 M608.76 575.6 C430.5 573.86, 252.85 574.41, 32 575.6 M32 575.6 C11.46 574.49, 0.12 564.07, 0 543.6 M32 575.6 C11.85 577.27, -0.08 563.55, 0 543.6 M0 543.6 C-1.96 427.82, -1.8 311.11, 0 32 M0 543.6 C1.6 396.2, 2 249.21, 0 32 M0 32 C0.72 12.21, 10.77 0.75, 32 0 M0 32 C-1.16 10.79, 10.46 0.87, 32 0" stroke="#1e1e1e" stroke-width="1" fill="none"></path></g><g stroke-linecap="round"><g transform="translate(1697.5239143176243 334.0164930555549) rotate(0 251.70355902777783 -2.5499131944444002)"><path d="M1.11 -0.59 C84.73 -1.28, 419.33 -4.3, 502.85 -4.94 M0.24 1.71 C83.55 1.31, 417.57 -1.97, 501.61 -3.32" stroke="#1e1e1e" stroke-width="1" fill="none"></path></g></g><mask></mask><g transform="translate(1724.9197476509578 297.315104166666) rotate(0 156.389892578125 12.5)"><text x="0" y="17.52" font-family="Virgil, Segoe UI Emoji" font-size="20px" fill="#1e1e1e" text-anchor="start" style="white-space: pre;" direction="ltr" dominant-baseline="alphabetic">LRUCacheEvictionStrategy&lt;Key&gt;</text></g><g stroke-linecap="round" transform="translate(1940.4188795954021 24.450520833333087) rotate(0 146.23914930555543 80.90277777777777)"><path d="M32 0 C102.47 0.41, 170.53 0.72, 260.48 0 M32 0 C106.23 -1.73, 180.85 -0.66, 260.48 0 M260.48 0 C281.22 -0.99, 291.15 11.2, 292.48 32 M260.48 0 C279.55 1.61, 293.46 11.59, 292.48 32 M292.48 32 C290.23 66.77, 290.12 98.79, 292.48 129.81 M292.48 32 C291.76 71.34, 292.07 110.72, 292.48 129.81 M292.48 129.81 C293.47 151.24, 280.25 161.82, 260.48 161.81 M292.48 129.81 C291.31 151.91, 283.76 160.41, 260.48 161.81 M260.48 161.81 C180.78 161.21, 97.45 162.32, 32 161.81 M260.48 161.81 C171.09 162.91, 82.79 163.23, 32 161.81 M32 161.81 C9.62 162, -0.79 149.44, 0 129.81 M32 161.81 C9.37 163.7, -1.82 153.16, 0 129.81 M0 129.81 C1.19 96.48, 1.09 61.19, 0 32 M0 129.81 C0.82 100.22, -0.1 73.09, 0 32 M0 32 C-0.73 10.02, 10.98 -0.43, 32 0 M0 32 C-1.2 11.86, 11.55 1.63, 32 0" stroke="#1e1e1e" stroke-width="1" fill="none"></path></g><g stroke-linecap="round"><g transform="translate(1937.2591573731797 82.01562499999972) rotate(0 149.26866319444446 -4.2339409722222)"><path d="M0.53 0.3 C50.25 -0.97, 248.79 -7.12, 298.56 -8.6 M-0.65 -0.58 C48.89 -1.58, 247.73 -6, 297.62 -7.13" stroke="#1e1e1e" stroke-width="1" fill="none"></path></g></g><mask></mask><g transform="translate(1986.6341573731797 29.22482638888863) rotate(0 107.93990325927746 25)"><text x="0" y="17.52" font-family="Virgil, Segoe UI Emoji" font-size="20px" fill="#1e1e1e" text-anchor="start" style="white-space: pre;" direction="ltr" dominant-baseline="alphabetic">&lt;&lt;Interface&gt;&gt;</text><text x="0" y="42.519999999999996" font-family="Virgil, Segoe UI Emoji" font-size="20px" fill="#1e1e1e" text-anchor="start" style="white-space: pre;" direction="ltr" dominant-baseline="alphabetic">EvictionStrategy&lt;Key&gt;</text></g><g transform="translate(1955.9006504287354 97.14149305555532) rotate(0 105.3399124145509 37.5)"><text x="0" y="17.52" font-family="Virgil, Segoe UI Emoji" font-size="20px" fill="#1e1e1e" text-anchor="start" style="white-space: pre;" direction="ltr" dominant-baseline="alphabetic">+ evict(): Key</text><text x="0" y="42.519999999999996" font-family="Virgil, Segoe UI Emoji" font-size="20px" fill="#1e1e1e" text-anchor="start" style="white-space: pre;" direction="ltr" dominant-baseline="alphabetic">+ accessed(Key): void</text><text x="0" y="67.52" font-family="Virgil, Segoe UI Emoji" font-size="20px" fill="#1e1e1e" text-anchor="start" style="white-space: pre;" direction="ltr" dominant-baseline="alphabetic">+ expire(Key): void</text></g><g mask="url(#mask--iHODir6M-Lht8rCGDnfO)" stroke-linecap="round"><g transform="translate(2004.0188661350555 273.26996527777703) rotate(0 32.9425445910349 -41.89887152777757)"><path d="M0.09 -0.12 C10.82 -14.09, 54.25 -70.58, 65.17 -84.33" stroke="#1e1e1e" stroke-width="1.5" fill="none" stroke-dasharray="1.5 7"></path></g><g transform="translate(2004.0188661350555 273.26996527777703) rotate(0 32.9425445910349 -41.89887152777757)"><path d="M65.87 -85.3 L60.44 -68.26 L51.35 -75.96 L63.89 -82.42" stroke="none" stroke-width="0" fill="#1e1e1e" fill-rule="evenodd"></path><path d="M65.17 -84.33 C63.73 -79.89, 61.98 -73.98, 61.81 -69.71 M61.81 -69.71 C57.42 -71.71, 53.35 -77.01, 51.81 -77.51 M51.81 -77.51 C56.07 -80.56, 59.55 -82.69, 65.17 -84.33 M65.17 -84.33 C65.17 -84.33, 65.17 -84.33, 65.17 -84.33" stroke="#1e1e1e" stroke-width="1.5" fill="none"></path></g></g><mask id="mask--iHODir6M-Lht8rCGDnfO"><rect x="0" y="0" fill="#fff" width="2169.903955317125" height="457.0677083333322"></rect><rect x="1984.601463521501" y="218.8710937499995" fill="#000" width="104.71989440917969" height="25" opacity="1"></rect></mask><g transform="translate(1984.6014635215008 218.87109374999943) rotate(0 52.04581387974304 12.170276328548795)"><text x="52.359947204589844" y="17.52" font-family="Virgil, Segoe UI Emoji" font-size="20px" fill="#1e1e1e" text-anchor="middle" style="white-space: pre;" direction="ltr" dominant-baseline="alphabetic">Implements</text></g><g mask="url(#mask-YI-IBwSCKgyoXbxK2xE4e)" stroke-linecap="round"><g transform="translate(2591.9165516159637 228.21419381015465) rotate(0 -177.73234295472548 -31.137720689541666)"><path d="M0.89 0.39 C-58.35 -10.18, -296.51 -52.95, -356.08 -63.45" stroke="#1e1e1e" stroke-width="1.5" fill="none" stroke-dasharray="1.5 7"></path></g><g transform="translate(2591.9165516159637 228.21419381015465) rotate(0 -177.73234295472548 -31.137720689541666)"><path d="M-354.44 -62.31 L-341.55 -67.36 L-344.19 -55.58 L-354.84 -64.89" stroke="none" stroke-width="0" fill="#1e1e1e" fill-rule="evenodd"></path><path d="M-356.08 -63.45 C-352.01 -65.28, -350.38 -66.8, -341.58 -67.31 M-341.58 -67.31 C-341.07 -62.9, -344 -59.27, -343.81 -54.82 M-343.81 -54.82 C-348.5 -58.89, -352.29 -59.25, -356.08 -63.45 M-356.08 -63.45 C-356.08 -63.45, -356.08 -63.45, -356.08 -63.45" stroke="#1e1e1e" stroke-width="1.5" fill="none"></path></g></g><mask id="mask-YI-IBwSCKgyoXbxK2xE4e"><rect x="0" y="0" fill="#fff" width="3047.3812375254147" height="390.489635189238"></rect><rect x="2361.824261456649" y="184.576473120613" fill="#000" width="104.71989440917969" height="25" opacity="1"></rect></mask><g transform="translate(2361.824261456648 184.576473120613) rotate(0 52.49641856811945 12.109188935533155)"><text x="52.359947204589844" y="17.52" font-family="Virgil, Segoe UI Emoji" font-size="20px" fill="#1e1e1e" text-anchor="middle" style="white-space: pre;" direction="ltr" dominant-baseline="alphabetic">Implements</text></g><g mask="url(#mask-IKaAk4Q0CsnPe8UPpe-_J)" stroke-linecap="round"><g transform="translate(1512.5679152603905 169.74576080926303) rotate(0 210.45760022306104 -56.14001418752188)"><path d="M-0.15 -0.54 C70.23 -19.31, 351.28 -94.48, 421.53 -113.22 M-1.68 1.79 C68.65 -16.8, 350.48 -93.21, 420.9 -112.18" stroke="#1e1e1e" stroke-width="4" fill="none"></path></g><g transform="translate(1512.5679152603905 169.74576080926303) rotate(0 210.45760022306104 -56.14001418752188)"><path d="M400.45 -97.79 C404.51 -100.19, 408.74 -103.95, 420.9 -112.18 M400.45 -97.79 C405.45 -101.11, 410.29 -105.4, 420.9 -112.18" stroke="#1e1e1e" stroke-width="4" fill="none"></path></g><g transform="translate(1512.5679152603905 169.74576080926303) rotate(0 210.45760022306104 -56.14001418752188)"><path d="M395.99 -114.3 C401.04 -112.75, 406.33 -112.55, 420.9 -112.18 M395.99 -114.3 C402.12 -113.61, 408.05 -113.88, 420.9 -112.18" stroke="#1e1e1e" stroke-width="4" fill="none"></path></g></g><mask id="mask-IKaAk4Q0CsnPe8UPpe-_J"><rect x="0" y="0" fill="#fff" width="2033.4831157065125" height="382.02578918430675"></rect><rect x="1705.4155301318892" y="101.10574662174116" fill="#000" width="35.219970703125" height="25" opacity="1"></rect></mask><g transform="translate(1705.4155301318888 101.10574662174116) rotate(0 17.073083588657823 12.92500283208674)"><text x="17.6099853515625" y="17.52" font-family="Virgil, Segoe UI Emoji" font-size="20px" fill="#1e1e1e" text-anchor="middle" style="white-space: pre;" direction="ltr" dominant-baseline="alphabetic">Has</text></g><g mask="url(#mask-DMwUmNfO-m_igrhgYmQrG)" stroke-linecap="round"><g transform="translate(224.9035342473768 771.2560763888885) rotate(0 -8.806739993464788 -74.07000530310376)"><path d="M1.1 -0.75 C-1.72 -25.23, -13.73 -123.33, -17.04 -148.06" stroke="#1e1e1e" stroke-width="4.5" fill="none" stroke-dasharray="1.5 10"></path></g><g transform="translate(224.9035342473768 771.2560763888885) rotate(0 -8.806739993464788 -74.07000530310376)"><path d="M-18.32 -146.97 L-7.84 -134.91 L-22.38 -134.27 L-17.09 -147.59" stroke="none" stroke-width="0" fill="#1e1e1e" fill-rule="evenodd"></path><path d="M-17.04 -148.06 C-15.78 -143.74, -12.43 -142.21, -9.04 -135.37 M-9.04 -135.37 C-10.96 -134.56, -14.68 -133.92, -21.61 -133.77 M-21.61 -133.77 C-19.84 -138.82, -18.36 -143.69, -17.04 -148.06 M-17.04 -148.06 C-17.04 -148.06, -17.04 -148.06, -17.04 -148.06" stroke="#1e1e1e" stroke-width="4.5" fill="none"></path></g></g><mask id="mask-DMwUmNfO-m_igrhgYmQrG"><rect x="0" y="0" fill="#fff" width="342.5170142343064" height="1019.396086995096"></rect><rect x="163.73684704932214" y="684.6860710857848" fill="#000" width="104.71989440917969" height="25" opacity="1"></rect></mask><g transform="translate(163.73684704932214 684.6860710857848) rotate(0 53.19855562113227 12.166874918714086)"><text x="52.359947204589844" y="17.52" font-family="Virgil, Segoe UI Emoji" font-size="20px" fill="#1e1e1e" text-anchor="middle" style="white-space: pre;" direction="ltr" dominant-baseline="alphabetic">Implements</text></g><g stroke-linecap="round" transform="translate(10.809359869809327 778.8124999999995) rotate(0 285.83214037392696 212.273683502462)"><path d="M32 0 C150.49 -1.89, 268.05 -1.84, 539.66 0 M32 0 C146.54 -0.89, 260.58 -1.05, 539.66 0 M539.66 0 C559.45 -0.81, 572.41 11.37, 571.66 32 M539.66 0 C559.98 -2.18, 571.05 9.66, 571.66 32 M571.66 32 C569.75 107.73, 571.05 182.44, 571.66 392.55 M571.66 32 C569.88 166.3, 570.39 301.39, 571.66 392.55 M571.66 392.55 C571.43 415.14, 562.65 423.23, 539.66 424.55 M571.66 392.55 C569.55 415.92, 560.75 425.66, 539.66 424.55 M539.66 424.55 C352.43 422.06, 164.29 421.95, 32 424.55 M539.66 424.55 C428.25 422.37, 316.63 422.44, 32 424.55 M32 424.55 C8.71 423.21, -1.56 414.09, 0 392.55 M32 424.55 C9.3 423.99, 1.73 413.22, 0 392.55 M0 392.55 C2.69 263.13, 2.61 133.94, 0 32 M0 392.55 C-0.59 248.86, -0.52 105.59, 0 32 M0 32 C0.6 10.56, 11.8 -1.86, 32 0 M0 32 C0.21 11.96, 12.16 -0.26, 32 0" stroke="#1e1e1e" stroke-width="4" fill="none"></path></g><g stroke-linecap="round"><g transform="translate(10.776003393903352 888.7754584726256) rotate(0 284.44103315652376 -0.593526327114489)"><path d="M-0.78 0.74 C94.07 0.81, 473.99 0.1, 568.97 -0.41 M1.02 0.08 C95.72 -0.11, 473.5 -1.84, 568.06 -2.13" stroke="#1e1e1e" stroke-width="4" fill="none"></path></g></g><mask></mask><g transform="translate(42.31788701087669 819.1604932562298) rotate(0 216.58784579817194 19.213330122014384)"><text x="0" y="26.929403499015343" font-family="Virgil, Segoe UI Emoji" font-size="30.741328195222994px" fill="#1e1e1e" text-anchor="start" style="white-space: pre;" direction="ltr" dominant-baseline="alphabetic">HashMapStorage&lt;Key, Value&gt;</text></g><g transform="translate(26.426801866011715 908.3434606321541) rotate(0 179.0766143798828 146.9935622247467)"><text x="0" y="13.73507845428033" font-family="Virgil, Segoe UI Emoji" font-size="15.679313303972977px" fill="#1e1e1e" text-anchor="start" style="white-space: pre;" direction="ltr" dominant-baseline="alphabetic">Map&lt;Key, Value&gt; keyToValueMap</text><text x="0" y="33.33422008424655" font-family="Virgil, Segoe UI Emoji" font-size="15.679313303972977px" fill="#1e1e1e" text-anchor="start" style="white-space: pre;" direction="ltr" dominant-baseline="alphabetic"></text><text x="0" y="52.93336171421278" font-family="Virgil, Segoe UI Emoji" font-size="15.679313303972977px" fill="#1e1e1e" text-anchor="start" style="white-space: pre;" direction="ltr" dominant-baseline="alphabetic">put(Key key, Value value) {</text><text x="0" y="72.53250334417899" font-family="Virgil, Segoe UI Emoji" font-size="15.679313303972977px" fill="#1e1e1e" text-anchor="start" style="white-space: pre;" direction="ltr" dominant-baseline="alphabetic">    //Add key value pair to hashmap</text><text x="0" y="92.13164497414522" font-family="Virgil, Segoe UI Emoji" font-size="15.679313303972977px" fill="#1e1e1e" text-anchor="start" style="white-space: pre;" direction="ltr" dominant-baseline="alphabetic">}</text><text x="0" y="111.73078660411144" font-family="Virgil, Segoe UI Emoji" font-size="15.679313303972977px" fill="#1e1e1e" text-anchor="start" style="white-space: pre;" direction="ltr" dominant-baseline="alphabetic"></text><text x="0" y="131.32992823407767" font-family="Virgil, Segoe UI Emoji" font-size="15.679313303972977px" fill="#1e1e1e" text-anchor="start" style="white-space: pre;" direction="ltr" dominant-baseline="alphabetic">get(Key key) {</text><text x="0" y="150.9290698640439" font-family="Virgil, Segoe UI Emoji" font-size="15.679313303972977px" fill="#1e1e1e" text-anchor="start" style="white-space: pre;" direction="ltr" dominant-baseline="alphabetic">// return null in case key is not present else </text><text x="0" y="170.52821149401012" font-family="Virgil, Segoe UI Emoji" font-size="15.679313303972977px" fill="#1e1e1e" text-anchor="start" style="white-space: pre;" direction="ltr" dominant-baseline="alphabetic">// return the corresponding value in the map</text><text x="0" y="190.12735312397635" font-family="Virgil, Segoe UI Emoji" font-size="15.679313303972977px" fill="#1e1e1e" text-anchor="start" style="white-space: pre;" direction="ltr" dominant-baseline="alphabetic">}</text><text x="0" y="209.72649475394257" font-family="Virgil, Segoe UI Emoji" font-size="15.679313303972977px" fill="#1e1e1e" text-anchor="start" style="white-space: pre;" direction="ltr" dominant-baseline="alphabetic"></text><text x="0" y="229.3256363839088" font-family="Virgil, Segoe UI Emoji" font-size="15.679313303972977px" fill="#1e1e1e" text-anchor="start" style="white-space: pre;" direction="ltr" dominant-baseline="alphabetic">remove(Key key) {</text><text x="0" y="248.924778013875" font-family="Virgil, Segoe UI Emoji" font-size="15.679313303972977px" fill="#1e1e1e" text-anchor="start" style="white-space: pre;" direction="ltr" dominant-baseline="alphabetic">    // Removes the key from map</text><text x="0" y="268.5239196438412" font-family="Virgil, Segoe UI Emoji" font-size="15.679313303972977px" fill="#1e1e1e" text-anchor="start" style="white-space: pre;" direction="ltr" dominant-baseline="alphabetic">}</text><text x="0" y="288.1230612738074" font-family="Virgil, Segoe UI Emoji" font-size="15.679313303972977px" fill="#1e1e1e" text-anchor="start" style="white-space: pre;" direction="ltr" dominant-baseline="alphabetic"></text></g><g stroke-linecap="round" transform="translate(627.6549907065126 10) rotate(0 439.2834104530561 261.50627761143124)"><path d="M32 0 C325.26 -0.46, 620.14 0.72, 846.57 0 M32 0 C322.5 0.12, 613.63 -0.37, 846.57 0 M846.57 0 C868.19 -1.23, 878.74 11.37, 878.57 32 M846.57 0 C866.06 0.43, 877.63 11.34, 878.57 32 M878.57 32 C877.38 142.48, 877.06 252.62, 878.57 491.01 M878.57 32 C879.33 183.93, 879.54 335.11, 878.57 491.01 M878.57 491.01 C880 513.9, 867.91 521.12, 846.57 523.01 M878.57 491.01 C878.33 511.71, 869.34 521.03, 846.57 523.01 M846.57 523.01 C602.72 520.05, 357.32 519.92, 32 523.01 M846.57 523.01 C643.91 525.28, 440.17 525.41, 32 523.01 M32 523.01 C12.26 521.91, -1.13 514.04, 0 491.01 M32 523.01 C12.62 520.91, -1.69 510.42, 0 491.01 M0 491.01 C0.13 399.8, -0.54 307.44, 0 32 M0 491.01 C-1.77 379.48, -1.19 267.8, 0 32 M0 32 C0.13 11.88, 12.17 -1.12, 32 0 M0 32 C1 10.08, 11.03 -0.49, 32 0" stroke="#1e1e1e" stroke-width="2" fill="none"></path></g><g transform="translate(653.9243747218474 33.27219848711263) rotate(0 90.1740627372165 50.725572597156365)"><text x="0" y="17.77424063804359" font-family="Virgil, Segoe UI Emoji" font-size="20.290229038862545px" fill="#1e1e1e" text-anchor="start" style="white-space: pre;" direction="ltr" dominant-baseline="alphabetic">Concrete Class</text><text x="0" y="43.13702693662177" font-family="Virgil, Segoe UI Emoji" font-size="20.290229038862545px" fill="#1e1e1e" text-anchor="start" style="white-space: pre;" direction="ltr" dominant-baseline="alphabetic">Cache&lt;Key, Value&gt;</text><text x="0" y="68.49981323519995" font-family="Virgil, Segoe UI Emoji" font-size="20.290229038862545px" fill="#1e1e1e" text-anchor="start" style="white-space: pre;" direction="ltr" dominant-baseline="alphabetic"></text><text x="0" y="93.86259953377814" font-family="Virgil, Segoe UI Emoji" font-size="20.290229038862545px" fill="#1e1e1e" text-anchor="start" style="white-space: pre;" direction="ltr" dominant-baseline="alphabetic"></text></g><g transform="translate(637.8419994306774 110.68698613271226) rotate(0 429.40039062500006 230.08767287712428)"><text x="0" y="13.437120096024056" font-family="Virgil, Segoe UI Emoji" font-size="15.339178191808285px" fill="#1e1e1e" text-anchor="start" style="white-space: pre;" direction="ltr" dominant-baseline="alphabetic">- storage: Storage</text><text x="0" y="32.61109283578441" font-family="Virgil, Segoe UI Emoji" font-size="15.339178191808285px" fill="#1e1e1e" text-anchor="start" style="white-space: pre;" direction="ltr" dominant-baseline="alphabetic">- EvictionStrategy: EvictionStrategy</text><text x="0" y="51.78506557554476" font-family="Virgil, Segoe UI Emoji" font-size="15.339178191808285px" fill="#1e1e1e" text-anchor="start" style="white-space: pre;" direction="ltr" dominant-baseline="alphabetic"></text><text x="0" y="70.95903831530512" font-family="Virgil, Segoe UI Emoji" font-size="15.339178191808285px" fill="#1e1e1e" text-anchor="start" style="white-space: pre;" direction="ltr" dominant-baseline="alphabetic">+ public get(Key): Value {</text><text x="0" y="90.13301105506548" font-family="Virgil, Segoe UI Emoji" font-size="15.339178191808285px" fill="#1e1e1e" text-anchor="start" style="white-space: pre;" direction="ltr" dominant-baseline="alphabetic"> // Call cleanup to lazily remove all the expired keys </text><text x="0" y="109.30698379482584" font-family="Virgil, Segoe UI Emoji" font-size="15.339178191808285px" fill="#1e1e1e" text-anchor="start" style="white-space: pre;" direction="ltr" dominant-baseline="alphabetic"> // Next, check if key is present in the storage after all expired keys </text><text x="0" y="128.48095653458617" font-family="Virgil, Segoe UI Emoji" font-size="15.339178191808285px" fill="#1e1e1e" text-anchor="start" style="white-space: pre;" direction="ltr" dominant-baseline="alphabetic"> // are removed. If not present return null;</text><text x="0" y="147.65492927434653" font-family="Virgil, Segoe UI Emoji" font-size="15.339178191808285px" fill="#1e1e1e" text-anchor="start" style="white-space: pre;" direction="ltr" dominant-baseline="alphabetic">// Else, update evictionstrategy that "key" is being accessed, and return</text><text x="0" y="166.8289020141069" font-family="Virgil, Segoe UI Emoji" font-size="15.339178191808285px" fill="#1e1e1e" text-anchor="start" style="white-space: pre;" direction="ltr" dominant-baseline="alphabetic">// value for the key from storage.</text><text x="0" y="186.00287475386725" font-family="Virgil, Segoe UI Emoji" font-size="15.339178191808285px" fill="#1e1e1e" text-anchor="start" style="white-space: pre;" direction="ltr" dominant-baseline="alphabetic">}</text><text x="0" y="205.1768474936276" font-family="Virgil, Segoe UI Emoji" font-size="15.339178191808285px" fill="#1e1e1e" text-anchor="start" style="white-space: pre;" direction="ltr" dominant-baseline="alphabetic"></text><text x="0" y="224.35082023338796" font-family="Virgil, Segoe UI Emoji" font-size="15.339178191808285px" fill="#1e1e1e" text-anchor="start" style="white-space: pre;" direction="ltr" dominant-baseline="alphabetic">+ public put(Key, Value): void {</text><text x="0" y="243.5247929731483" font-family="Virgil, Segoe UI Emoji" font-size="15.339178191808285px" fill="#1e1e1e" text-anchor="start" style="white-space: pre;" direction="ltr" dominant-baseline="alphabetic">// Call cleanup to lazily remove all the expired keys</text><text x="0" y="262.69876571290865" font-family="Virgil, Segoe UI Emoji" font-size="15.339178191808285px" fill="#1e1e1e" text-anchor="start" style="white-space: pre;" direction="ltr" dominant-baseline="alphabetic">// Check if a key needs to be evicted for processing this put request, if not, add/update the key value pair in </text><text x="0" y="281.872738452669" font-family="Virgil, Segoe UI Emoji" font-size="15.339178191808285px" fill="#1e1e1e" text-anchor="start" style="white-space: pre;" direction="ltr" dominant-baseline="alphabetic">// storage and also notify evictionStrategy that this key is accessed.</text><text x="0" y="301.04671119242937" font-family="Virgil, Segoe UI Emoji" font-size="15.339178191808285px" fill="#1e1e1e" text-anchor="start" style="white-space: pre;" direction="ltr" dominant-baseline="alphabetic">// Else call evict() method of evictionStrategy and then process the put request by adding it to </text><text x="0" y="320.22068393218973" font-family="Virgil, Segoe UI Emoji" font-size="15.339178191808285px" fill="#1e1e1e" text-anchor="start" style="white-space: pre;" direction="ltr" dominant-baseline="alphabetic">// storage and also calling accessed method of eviction strategy for the put request key. </text><text x="0" y="339.3946566719501" font-family="Virgil, Segoe UI Emoji" font-size="15.339178191808285px" fill="#1e1e1e" text-anchor="start" style="white-space: pre;" direction="ltr" dominant-baseline="alphabetic">}</text><text x="0" y="358.56862941171045" font-family="Virgil, Segoe UI Emoji" font-size="15.339178191808285px" fill="#1e1e1e" text-anchor="start" style="white-space: pre;" direction="ltr" dominant-baseline="alphabetic"></text><text x="0" y="377.7426021514708" font-family="Virgil, Segoe UI Emoji" font-size="15.339178191808285px" fill="#1e1e1e" text-anchor="start" style="white-space: pre;" direction="ltr" dominant-baseline="alphabetic">private cleanup() {</text><text x="0" y="396.91657489123116" font-family="Virgil, Segoe UI Emoji" font-size="15.339178191808285px" fill="#1e1e1e" text-anchor="start" style="white-space: pre;" direction="ltr" dominant-baseline="alphabetic">// Lazily remove all the expired keys from storage as well</text><text x="0" y="416.0905476309915" font-family="Virgil, Segoe UI Emoji" font-size="15.339178191808285px" fill="#1e1e1e" text-anchor="start" style="white-space: pre;" direction="ltr" dominant-baseline="alphabetic"> // as from eviction strategy meta data. </text><text x="0" y="435.2645203707519" font-family="Virgil, Segoe UI Emoji" font-size="15.339178191808285px" fill="#1e1e1e" text-anchor="start" style="white-space: pre;" direction="ltr" dominant-baseline="alphabetic"></text><text x="0" y="454.43849311051224" font-family="Virgil, Segoe UI Emoji" font-size="15.339178191808285px" fill="#1e1e1e" text-anchor="start" style="white-space: pre;" direction="ltr" dominant-baseline="alphabetic">}</text></g><g stroke-linecap="round"><g transform="translate(625.7226990398464 93.31119791666653) rotate(0 439.02560763888897 -4.615885416666671)"><path d="M0.93 -0.16 C147.23 -1.84, 732.22 -7.87, 878.28 -9.48 M-0.04 -1.3 C146.08 -2.85, 730.81 -6.81, 877.45 -8.07" stroke="#1e1e1e" stroke-width="1" fill="none"></path></g></g><mask></mask><g stroke-linecap="round" transform="translate(68.42610309177576 387.1805555555549) rotate(0 146.5674445254369 117.46775511356299)"><path d="M32 0 C81.03 -1.02, 128.94 -0.23, 261.13 0 M32 0 C90.87 -1.55, 149.39 -1.22, 261.13 0 M261.13 0 C283.77 0.75, 291.65 9.71, 293.13 32 M261.13 0 C284.75 -0.5, 292.08 12.73, 293.13 32 M293.13 32 C292.68 88.96, 294.1 147.19, 293.13 202.94 M293.13 32 C291.84 89.23, 290.96 147.5, 293.13 202.94 M293.13 202.94 C292.64 222.8, 282.79 233.45, 261.13 234.94 M293.13 202.94 C291.44 222.36, 282.18 236.67, 261.13 234.94 M261.13 234.94 C179.12 234.49, 98 236, 32 234.94 M261.13 234.94 C211.92 234.27, 161.54 235.78, 32 234.94 M32 234.94 C11.43 233.62, 1.23 225.21, 0 202.94 M32 234.94 C12.44 234.25, -1.24 225.74, 0 202.94 M0 202.94 C-2.44 151.15, -0.49 102.77, 0 32 M0 202.94 C-2.1 158.69, -2.68 111.54, 0 32 M0 32 C1.53 10.42, 11.21 0.02, 32 0 M0 32 C1.91 8.57, 11.77 -1.32, 32 0" stroke="#1e1e1e" stroke-width="4" fill="none"></path></g><g stroke-linecap="round"><g transform="translate(68.60187784290747 454.8861198997004) rotate(0 151.1985711317892 -3.40608420815758)"><path d="M-0.39 0.52 C49.82 -0.7, 251.64 -5.57, 302.19 -6.88 M1.6 -0.25 C51.55 -1.32, 250.99 -4.37, 301.13 -5.38" stroke="#1e1e1e" stroke-width="4" fill="none"></path></g></g><mask></mask><g transform="translate(130.79026734540344 399.4370320814949) rotate(0 81.90608215332031 20.66250135754362)"><text x="0" y="14.48028095136656" font-family="Virgil, Segoe UI Emoji" font-size="16.530001086034886px" fill="#1e1e1e" text-anchor="start" style="white-space: pre;" direction="ltr" dominant-baseline="alphabetic">&lt;&lt;Abstract&gt;&gt;</text><text x="0" y="35.14278230891017" font-family="Virgil, Segoe UI Emoji" font-size="16.530001086034886px" fill="#1e1e1e" text-anchor="start" style="white-space: pre;" direction="ltr" dominant-baseline="alphabetic">Storage&lt;Key, Value&gt;</text></g><g transform="translate(78.1397520221957 484.3373588138381) rotate(0 91.40255737304688 51.656253393859004)"><text x="0" y="14.48028095136656" font-family="Virgil, Segoe UI Emoji" font-size="16.530001086034886px" fill="#1e1e1e" text-anchor="start" style="white-space: pre;" direction="ltr" dominant-baseline="alphabetic">- capacity: int</text><text x="0" y="35.14278230891017" font-family="Virgil, Segoe UI Emoji" font-size="16.530001086034886px" fill="#1e1e1e" text-anchor="start" style="white-space: pre;" direction="ltr" dominant-baseline="alphabetic">+ put(Key, Value): void</text><text x="0" y="55.805283666453775" font-family="Virgil, Segoe UI Emoji" font-size="16.530001086034886px" fill="#1e1e1e" text-anchor="start" style="white-space: pre;" direction="ltr" dominant-baseline="alphabetic">+ get(Key): Value</text><text x="0" y="76.46778502399738" font-family="Virgil, Segoe UI Emoji" font-size="16.530001086034886px" fill="#1e1e1e" text-anchor="start" style="white-space: pre;" direction="ltr" dominant-baseline="alphabetic">+ remove(Key): void</text><text x="0" y="97.130286381541" font-family="Virgil, Segoe UI Emoji" font-size="16.530001086034886px" fill="#1e1e1e" text-anchor="start" style="white-space: pre;" direction="ltr" dominant-baseline="alphabetic"></text></g><g mask="url(#mask-E0sX5hJWV1v4Ypt3ZxGzl)" stroke-linecap="round"><g transform="translate(619.7956157065128 170.37517434967276) rotate(0 -202.64728927171166 108.08585032516336)"><path d="M-0.71 1.07 C-68.38 37.37, -338.39 181.3, -405.71 217.21 M1.11 0.58 C-66.77 36.63, -339.18 180, -406.88 215.64" stroke="#1e1e1e" stroke-width="4" fill="none"></path></g><g transform="translate(619.7956157065128 170.37517434967276) rotate(0 -202.64728927171166 108.08585032516336)"><path d="M-390.07 197.13 C-393.84 202.33, -399.33 210.08, -406.88 215.64 M-390.07 197.13 C-394.83 203.27, -402.35 209.54, -406.88 215.64" stroke="#1e1e1e" stroke-width="4" fill="none"></path></g><g transform="translate(619.7956157065128 170.37517434967276) rotate(0 -202.64728927171166 108.08585032516336)"><path d="M-382.11 212.26 C-388.38 212.51, -396.45 215.36, -406.88 215.64 M-382.11 212.26 C-389.39 213.44, -399.55 214.68, -406.88 215.64" stroke="#1e1e1e" stroke-width="4" fill="none"></path></g></g><mask id="mask-E0sX5hJWV1v4Ypt3ZxGzl"><rect x="0" y="0" fill="#fff" width="1125.090194249936" height="486.5468749999995"></rect><rect x="399.5383410832385" y="265.9610246748361" fill="#000" width="35.219970703125" height="25" opacity="1"></rect></mask><g transform="translate(399.5383410832386 265.96102467483604) rotate(0 17.37478619668633 13.30981928588821)"><text x="17.6099853515625" y="17.52" font-family="Virgil, Segoe UI Emoji" font-size="20px" fill="#1e1e1e" text-anchor="middle" style="white-space: pre;" direction="ltr" dominant-baseline="alphabetic">Has</text></g><g transform="translate(1707.1593309842908 366.397135416666) rotate(0 290.3898010253906 262.5)"><text x="0" y="17.52" font-family="Virgil, Segoe UI Emoji" font-size="20px" fill="#1e1e1e" text-anchor="start" style="white-space: pre;" direction="ltr" dominant-baseline="alphabetic">- dll: DoublyLinkedList</text><text x="0" y="42.519999999999996" font-family="Virgil, Segoe UI Emoji" font-size="20px" fill="#1e1e1e" text-anchor="start" style="white-space: pre;" direction="ltr" dominant-baseline="alphabetic">- keyToNodeMap: Map&lt;Key, Node&gt;</text><text x="0" y="67.52" font-family="Virgil, Segoe UI Emoji" font-size="20px" fill="#1e1e1e" text-anchor="start" style="white-space: pre;" direction="ltr" dominant-baseline="alphabetic"></text><text x="0" y="92.52" font-family="Virgil, Segoe UI Emoji" font-size="20px" fill="#1e1e1e" text-anchor="start" style="white-space: pre;" direction="ltr" dominant-baseline="alphabetic">+ evict(): Key {</text><text x="0" y="117.52" font-family="Virgil, Segoe UI Emoji" font-size="20px" fill="#1e1e1e" text-anchor="start" style="white-space: pre;" direction="ltr" dominant-baseline="alphabetic">    Node evictedNode = dll.removeFromHead();</text><text x="0" y="142.52" font-family="Virgil, Segoe UI Emoji" font-size="20px" fill="#1e1e1e" text-anchor="start" style="white-space: pre;" direction="ltr" dominant-baseline="alphabetic">    if(evictedNode != null) return evictedNode.getKey();</text><text x="0" y="167.52" font-family="Virgil, Segoe UI Emoji" font-size="20px" fill="#1e1e1e" text-anchor="start" style="white-space: pre;" direction="ltr" dominant-baseline="alphabetic">    else return null;</text><text x="0" y="192.52" font-family="Virgil, Segoe UI Emoji" font-size="20px" fill="#1e1e1e" text-anchor="start" style="white-space: pre;" direction="ltr" dominant-baseline="alphabetic">} </text><text x="0" y="217.52" font-family="Virgil, Segoe UI Emoji" font-size="20px" fill="#1e1e1e" text-anchor="start" style="white-space: pre;" direction="ltr" dominant-baseline="alphabetic"></text><text x="0" y="242.52" font-family="Virgil, Segoe UI Emoji" font-size="20px" fill="#1e1e1e" text-anchor="start" style="white-space: pre;" direction="ltr" dominant-baseline="alphabetic">+ accessed(Key key): void {</text><text x="0" y="267.52" font-family="Virgil, Segoe UI Emoji" font-size="20px" fill="#1e1e1e" text-anchor="start" style="white-space: pre;" direction="ltr" dominant-baseline="alphabetic">// if key is already present in the map, remove it from</text><text x="0" y="292.52" font-family="Virgil, Segoe UI Emoji" font-size="20px" fill="#1e1e1e" text-anchor="start" style="white-space: pre;" direction="ltr" dominant-baseline="alphabetic">// the current position in dll and insert it at tail. Else</text><text x="0" y="317.52" font-family="Virgil, Segoe UI Emoji" font-size="20px" fill="#1e1e1e" text-anchor="start" style="white-space: pre;" direction="ltr" dominant-baseline="alphabetic">// , directly insert at the tail</text><text x="0" y="342.52" font-family="Virgil, Segoe UI Emoji" font-size="20px" fill="#1e1e1e" text-anchor="start" style="white-space: pre;" direction="ltr" dominant-baseline="alphabetic">}</text><text x="0" y="367.52" font-family="Virgil, Segoe UI Emoji" font-size="20px" fill="#1e1e1e" text-anchor="start" style="white-space: pre;" direction="ltr" dominant-baseline="alphabetic"></text><text x="0" y="392.52" font-family="Virgil, Segoe UI Emoji" font-size="20px" fill="#1e1e1e" text-anchor="start" style="white-space: pre;" direction="ltr" dominant-baseline="alphabetic">+ expire(Key key): void {</text><text x="0" y="417.52" font-family="Virgil, Segoe UI Emoji" font-size="20px" fill="#1e1e1e" text-anchor="start" style="white-space: pre;" direction="ltr" dominant-baseline="alphabetic">// assuming key is present in the DLL and map, remove it </text><text x="0" y="442.52" font-family="Virgil, Segoe UI Emoji" font-size="20px" fill="#1e1e1e" text-anchor="start" style="white-space: pre;" direction="ltr" dominant-baseline="alphabetic">// from both map and dll </text><text x="0" y="467.52" font-family="Virgil, Segoe UI Emoji" font-size="20px" fill="#1e1e1e" text-anchor="start" style="white-space: pre;" direction="ltr" dominant-baseline="alphabetic">}</text><text x="0" y="492.52" font-family="Virgil, Segoe UI Emoji" font-size="20px" fill="#1e1e1e" text-anchor="start" style="white-space: pre;" direction="ltr" dominant-baseline="alphabetic"></text><text x="0" y="517.52" font-family="Virgil, Segoe UI Emoji" font-size="20px" fill="#1e1e1e" text-anchor="start" style="white-space: pre;" direction="ltr" dominant-baseline="alphabetic"></text></g><g stroke-linecap="round" transform="translate(872.9449212620668 581.4318576388885) rotate(0 249.72924243546493 196.47861487078865)"><path d="M32 0 C195.82 1.77, 358.98 1.17, 467.46 0 M32 0 C135.88 -1.52, 240.53 -1.16, 467.46 0 M467.46 0 C488.19 -1.04, 499.46 10.67, 499.46 32 M467.46 0 C490.09 2.25, 499.31 8.78, 499.46 32 M499.46 32 C501.05 139.59, 499.63 248.88, 499.46 360.96 M499.46 32 C499.55 144.61, 498.62 257.89, 499.46 360.96 M499.46 360.96 C499.45 380.95, 487.35 394.69, 467.46 392.96 M499.46 360.96 C499.13 380.84, 490.95 394.22, 467.46 392.96 M467.46 392.96 C340.97 395.52, 212.57 395.07, 32 392.96 M467.46 392.96 C298.33 393.88, 128.89 393.58, 32 392.96 M32 392.96 C10.33 391.02, 0 381.63, 0 360.96 M32 392.96 C10.87 391.56, 1.92 381.15, 0 360.96 M0 360.96 C2.17 240.98, 0.71 121.3, 0 32 M0 360.96 C0.25 279.21, -0.16 197.83, 0 32 M0 32 C-1.4 10.84, 9.16 1.33, 32 0 M0 32 C-0.85 11.27, 11.9 -1.28, 32 0" stroke="#1e1e1e" stroke-width="1" fill="none"></path></g><g transform="translate(912.1644617013169 604.2962614700812) rotate(0 88.38430511159447 27.77287348537982)"><text x="0" y="19.46322973855419" font-family="Virgil, Segoe UI Emoji" font-size="22.218298788303873px" fill="#1e1e1e" text-anchor="start" style="white-space: pre;" direction="ltr" dominant-baseline="alphabetic">DoublyLinkedList</text><text x="0" y="47.23610322393403" font-family="Virgil, Segoe UI Emoji" font-size="22.218298788303873px" fill="#1e1e1e" text-anchor="start" style="white-space: pre;" direction="ltr" dominant-baseline="alphabetic"></text></g><g stroke-linecap="round"><g transform="translate(874.2949915009397 645.5601939853384) rotate(0 248.46837326594652 -0.7425386313800004)"><path d="M0.87 1.11 C83.73 0.71, 415.49 -1.84, 498.04 -2.29 M-0.13 0.64 C82.58 0.38, 414.54 -1.01, 497.68 -1.17" stroke="#1e1e1e" stroke-width="1" fill="none"></path></g></g><mask></mask><g transform="translate(892.41486277838 674.6542076330436) rotate(0 221.53936767578125 148.78387152487136)"><text x="0" y="18.957770393569064" font-family="Virgil, Segoe UI Emoji" font-size="21.641290403617653px" fill="#1e1e1e" text-anchor="start" style="white-space: pre;" direction="ltr" dominant-baseline="alphabetic">- head: Node;</text><text x="0" y="46.00938339809113" font-family="Virgil, Segoe UI Emoji" font-size="21.641290403617653px" fill="#1e1e1e" text-anchor="start" style="white-space: pre;" direction="ltr" dominant-baseline="alphabetic">- tail: tail;</text><text x="0" y="73.0609964026132" font-family="Virgil, Segoe UI Emoji" font-size="21.641290403617653px" fill="#1e1e1e" text-anchor="start" style="white-space: pre;" direction="ltr" dominant-baseline="alphabetic"></text><text x="0" y="100.11260940713527" font-family="Virgil, Segoe UI Emoji" font-size="21.641290403617653px" fill="#1e1e1e" text-anchor="start" style="white-space: pre;" direction="ltr" dominant-baseline="alphabetic">// Remove the node from the </text><text x="0" y="127.16422241165733" font-family="Virgil, Segoe UI Emoji" font-size="21.641290403617653px" fill="#1e1e1e" text-anchor="start" style="white-space: pre;" direction="ltr" dominant-baseline="alphabetic">// doubly linked list</text><text x="0" y="154.2158354161794" font-family="Virgil, Segoe UI Emoji" font-size="21.641290403617653px" fill="#1e1e1e" text-anchor="start" style="white-space: pre;" direction="ltr" dominant-baseline="alphabetic">+ removeNode(Node): void;</text><text x="0" y="181.26744842070147" font-family="Virgil, Segoe UI Emoji" font-size="21.641290403617653px" fill="#1e1e1e" text-anchor="start" style="white-space: pre;" direction="ltr" dominant-baseline="alphabetic">// Remove first node of doubly linked list</text><text x="0" y="208.31906142522354" font-family="Virgil, Segoe UI Emoji" font-size="21.641290403617653px" fill="#1e1e1e" text-anchor="start" style="white-space: pre;" direction="ltr" dominant-baseline="alphabetic">+ removeFromHead(): Node;</text><text x="0" y="235.3706744297456" font-family="Virgil, Segoe UI Emoji" font-size="21.641290403617653px" fill="#1e1e1e" text-anchor="start" style="white-space: pre;" direction="ltr" dominant-baseline="alphabetic">// Most recent is added at the tail</text><text x="0" y="262.4222874342677" font-family="Virgil, Segoe UI Emoji" font-size="21.641290403617653px" fill="#1e1e1e" text-anchor="start" style="white-space: pre;" direction="ltr" dominant-baseline="alphabetic">+ insertAtTail(Node): void;</text><text x="0" y="289.47390043878977" font-family="Virgil, Segoe UI Emoji" font-size="21.641290403617653px" fill="#1e1e1e" text-anchor="start" style="white-space: pre;" direction="ltr" dominant-baseline="alphabetic">+ isEmpty(): boolean</text></g><g stroke-linecap="round" transform="translate(988.4961365398447 1069.7825520833323) rotate(0 150.69444444444446 86.27387152777783)"><path d="M32 0 C85.65 0.03, 140.16 -1.65, 269.39 0 M32 0 C79.43 -0.58, 128.28 0.12, 269.39 0 M269.39 0 C290.63 1.79, 301.3 12.26, 301.39 32 M269.39 0 C289.47 -1.07, 302.15 12.15, 301.39 32 M301.39 32 C302.82 59.75, 300.31 86.03, 301.39 140.55 M301.39 32 C302.49 56.32, 302.22 81.4, 301.39 140.55 M301.39 140.55 C301.66 160.65, 292 174.09, 269.39 172.55 M301.39 140.55 C302.62 163.46, 292.58 172.9, 269.39 172.55 M269.39 172.55 C198.34 174.31, 129.48 174.62, 32 172.55 M269.39 172.55 C198.94 171.01, 130.76 169.86, 32 172.55 M32 172.55 C11.01 172.77, 1.25 163.66, 0 140.55 M32 172.55 C12.43 171.76, -1.04 161, 0 140.55 M0 140.55 C1.94 99.75, 0.65 55.02, 0 32 M0 140.55 C0.58 110.95, -0.04 81.72, 0 32 M0 32 C-0.47 12.2, 9.73 -0.74, 32 0 M0 32 C-0.02 10.6, 10.38 1.84, 32 0" stroke="#1e1e1e" stroke-width="1" fill="none"></path></g><g transform="translate(1118.574261539845 1082.1783854166663) rotate(0 50.3299560546875 25)"><text x="0" y="17.52" font-family="Virgil, Segoe UI Emoji" font-size="20px" fill="#1e1e1e" text-anchor="start" style="white-space: pre;" direction="ltr" dominant-baseline="alphabetic">Node&lt;Key&gt;</text><text x="0" y="42.519999999999996" font-family="Virgil, Segoe UI Emoji" font-size="20px" fill="#1e1e1e" text-anchor="start" style="white-space: pre;" direction="ltr" dominant-baseline="alphabetic"></text></g><g stroke-linecap="round"><g transform="translate(992.4284282065112 1116.7790798611106) rotate(0 150.52734375 -1.3650173611110858)"><path d="M0.01 0.72 C50.09 0.27, 251.04 -1.68, 301.36 -2.45 M-1.45 0.05 C48.42 -0.8, 250.07 -3.88, 300.58 -4.42" stroke="#1e1e1e" stroke-width="1" fill="none"></path></g></g><mask></mask><g transform="translate(1000.5404073731781 1127.3780381944437) rotate(0 61.07994842529297 37.5)"><text x="0" y="17.52" font-family="Virgil, Segoe UI Emoji" font-size="20px" fill="#1e1e1e" text-anchor="start" style="white-space: pre;" direction="ltr" dominant-baseline="alphabetic">- key: Key</text><text x="0" y="42.519999999999996" font-family="Virgil, Segoe UI Emoji" font-size="20px" fill="#1e1e1e" text-anchor="start" style="white-space: pre;" direction="ltr" dominant-baseline="alphabetic">- prev: Node</text><text x="0" y="67.52" font-family="Virgil, Segoe UI Emoji" font-size="20px" fill="#1e1e1e" text-anchor="start" style="white-space: pre;" direction="ltr" dominant-baseline="alphabetic">- next: Node</text></g><g stroke-linecap="round"><g transform="translate(1101.8945740398447 981.4231770833328) rotate(0 2.4934895833333712 45.375434027777715)"><path d="M0.44 -0.57 C1.22 14.25, 3.49 74.39, 4.09 89.68 M-0.79 1.74 C0.42 16.61, 5.13 76.1, 6.33 90.66" stroke="#1e1e1e" stroke-width="1" fill="none"></path></g><g transform="translate(1101.8945740398447 981.4231770833328) rotate(0 2.4934895833333712 45.375434027777715)"><path d="M-4.08 67.93 C-2.3 72.05, -0.54 77.61, 6.33 90.66 M-4.08 67.93 C0.14 75.18, 3.47 82.32, 6.33 90.66" stroke="#1e1e1e" stroke-width="1" fill="none"></path></g><g transform="translate(1101.8945740398447 981.4231770833328) rotate(0 2.4934895833333712 45.375434027777715)"><path d="M12.97 66.56 C10.51 71.08, 8.04 76.98, 6.33 90.66 M12.97 66.56 C11.45 74.25, 9.03 81.86, 6.33 90.66" stroke="#1e1e1e" stroke-width="1" fill="none"></path></g></g><mask></mask><g transform="translate(1116.0959629287338 1017.3780381944437) rotate(0 17.6099853515625 12.5)"><text x="0" y="17.52" font-family="Virgil, Segoe UI Emoji" font-size="20px" fill="#1e1e1e" text-anchor="start" style="white-space: pre;" direction="ltr" dominant-baseline="alphabetic">Has</text></g><g mask="url(#mask-f5LSXiGqsuZmd8lGfuJvx)" stroke-linecap="round"><g transform="translate(1692.0681851509582 639.2220341933028) rotate(0 -159.33238950898067 49.3845249502956)"><path d="M-0.26 -0.69 C-53.34 15.76, -265.53 81.05, -318.57 97.78 M1.8 1.56 C-51.41 18.21, -265.97 82.75, -319.47 98.79" stroke="#1e1e1e" stroke-width="1" fill="none"></path></g><g transform="translate(1692.0681851509582 639.2220341933028) rotate(0 -159.33238950898067 49.3845249502956)"><path d="M-299.44 83.84 C-306.48 88.27, -312.77 92.69, -319.47 98.79 M-299.44 83.84 C-306.14 89.29, -314.7 95.82, -319.47 98.79" stroke="#1e1e1e" stroke-width="1" fill="none"></path></g><g transform="translate(1692.0681851509582 639.2220341933028) rotate(0 -159.33238950898067 49.3845249502956)"><path d="M-294.51 100.22 C-302.85 99.91, -310.56 99.6, -319.47 98.79 M-294.51 100.22 C-303.05 99.57, -313.46 99.95, -319.47 98.79" stroke="#1e1e1e" stroke-width="1" fill="none"></path></g></g><mask id="mask-f5LSXiGqsuZmd8lGfuJvx"><rect x="0" y="0" fill="#fff" width="2110.7329641689194" height="837.991084093894"></rect><rect x="1469.385850573618" y="676.1065591435984" fill="#000" width="126.69989013671875" height="25" opacity="1"></rect></mask><g transform="translate(1469.3858505736182 676.1065591435984) rotate(0 63.84454790679729 12.167424394460397)"><text x="63.349945068359375" y="17.52" font-family="Virgil, Segoe UI Emoji" font-size="20px" fill="#1e1e1e" text-anchor="middle" style="white-space: pre;" direction="ltr" dominant-baseline="alphabetic">Has(only one)</text></g><g stroke-linecap="round" transform="translate(2598.769850227075 216.34288194444417) rotate(0 442.30294661151356 331.7497838065551)"><path d="M32 0 C353.85 -2.56, 676.48 -2.79, 852.61 0 M32 0 C343.59 2.46, 654.16 2.49, 852.61 0 M852.61 0 C873.98 -1.06, 882.74 9.18, 884.61 32 M852.61 0 C874.05 1.4, 886.88 12.37, 884.61 32 M884.61 32 C882.78 153.81, 883.29 276.42, 884.61 631.5 M884.61 32 C883.66 153.8, 883.78 276.18, 884.61 631.5 M884.61 631.5 C882.64 653.83, 873.76 664.68, 852.61 663.5 M884.61 631.5 C883.64 652.17, 874.65 663.41, 852.61 663.5 M852.61 663.5 C650.96 665.3, 448.1 664.7, 32 663.5 M852.61 663.5 C554.18 665.73, 255.55 666.18, 32 663.5 M32 663.5 C10.51 662.34, 1.22 651.81, 0 631.5 M32 663.5 C12.88 661.32, 0.39 655.02, 0 631.5 M0 631.5 C-1.32 483.15, -0.18 334.95, 0 32 M0 631.5 C0.65 422.79, 0.65 214.32, 0 32 M0 32 C1.55 10.91, 12.2 -1.4, 32 0 M0 32 C-0.99 12.35, 12.82 1.89, 32 0" stroke="#1e1e1e" stroke-width="1" fill="none"></path></g><g stroke-linecap="round"><g transform="translate(2595.708836449081 339.5419143543634) rotate(0 441.2735791463465 -1.6208022806786744)"><path d="M-0.55 0.66 C146.42 0.29, 735.27 -2.32, 882.56 -2.89 M1.36 -0.03 C148.11 -0.73, 734.71 -4.02, 881.62 -4.83" stroke="#1e1e1e" stroke-width="4" fill="none"></path></g></g><mask></mask><g transform="translate(2734.194878670639 260.4973284765834) rotate(0 323.19086704160236 26.005072804204588)"><text x="0" y="36.44871004237316" font-family="Virgil, Segoe UI Emoji" font-size="41.608116486727354px" fill="#1e1e1e" text-anchor="start" style="white-space: pre;" direction="ltr" dominant-baseline="alphabetic">LFUCacheEvictionStrategy&lt;Key&gt;</text></g><g stroke-linecap="round" transform="translate(2980.905253224061 882.0775778781858) rotate(0 19.479222002373717 29.256404203268062)"><path d="M25 7.5 C28.04 12.39, 31.14 18.05, 33.96 22.5 M25 7.5 C28.2 13.12, 30.02 17.84, 33.96 22.5 M33.96 22.5 C38.68 28.81, 38.97 31.17, 33.96 37.5 M33.96 22.5 C37.01 28.04, 40.56 29.17, 33.96 37.5 M33.96 37.5 C31.92 42.2, 26.42 48.04, 25 51.01 M33.96 37.5 C31.05 41.47, 28.74 46.32, 25 51.01 M25 51.01 C18.19 59.93, 21.87 60.34, 15 51.01 M25 51.01 C18.68 56.83, 22.03 56.24, 15 51.01 M15 51.01 C12.42 47.09, 7.11 41.93, 5 37.5 M15 51.01 C11.39 45.24, 6.7 40.45, 5 37.5 M5 37.5 C1.84 31.76, 1.8 28.57, 5 22.5 M5 37.5 C-1.08 28.76, 2.03 29.99, 5 22.5 M5 22.5 C6.02 17.77, 11.04 14.01, 15 7.5 M5 22.5 C8.91 18.09, 11.9 12.04, 15 7.5 M15 7.5 C21.25 0.24, 20.86 0.77, 25 7.5 M15 7.5 C18.87 -2.01, 18.97 -0.18, 25 7.5" stroke="#1e1e1e" stroke-width="1" fill="none"></path></g><g mask="url(#mask-4mdW-KZMugnUY382I1cIw)" stroke-linecap="round"><g transform="translate(2999.5380997535267 941.1235714001193) rotate(0 -813.067346810265 -43.39619856675148)"><path d="M0.16 -0.21 C-271.19 -14.56, -1355.92 -72.28, -1627.03 -86.8 M-1.21 -1.37 C-272.28 -15.45, -1353.75 -71.11, -1624.78 -85.27" stroke="#1e1e1e" stroke-width="1" fill="none"></path></g><g transform="translate(2999.5380997535267 941.1235714001193) rotate(0 -813.067346810265 -43.39619856675148)"><path d="M-1600.88 -92.6 C-1610.61 -91.19, -1619.6 -87.38, -1624.78 -85.27 M-1600.88 -92.6 C-1607.67 -91.78, -1612.4 -89.89, -1624.78 -85.27" stroke="#1e1e1e" stroke-width="1" fill="none"></path></g><g transform="translate(2999.5380997535267 941.1235714001193) rotate(0 -813.067346810265 -43.39619856675148)"><path d="M-1601.76 -75.52 C-1611.04 -80.78, -1619.69 -83.63, -1624.78 -85.27 M-1601.76 -75.52 C-1608.32 -79, -1612.83 -81.4, -1624.78 -85.27" stroke="#1e1e1e" stroke-width="1" fill="none"></path></g></g><mask id="mask-4mdW-KZMugnUY382I1cIw"><rect x="0" y="0" fill="#fff" width="4725.672793374057" height="1127.9159685336222"></rect><rect x="2092.0808298475586" y="885.2273728333679" fill="#000" width="188.77984619140625" height="25" opacity="1"></rect></mask><g transform="translate(2092.0808298475586 885.227372833368) rotate(0 94.02662187553949 12.386801477894096)"><text x="94.38992309570312" y="17.52" font-family="Virgil, Segoe UI Emoji" font-size="20px" fill="#1e1e1e" text-anchor="middle" style="white-space: pre;" direction="ltr" dominant-baseline="alphabetic">Has(more than one)</text></g><g transform="translate(2616.078601817624 384.418511284722) rotate(0 104.48992156982422 12.5)"><text x="0" y="17.52" font-family="Virgil, Segoe UI Emoji" font-size="20px" fill="#1e1e1e" text-anchor="start" style="white-space: pre;" direction="ltr" dominant-baseline="alphabetic">// Implement it later</text></g></svg>